<?xml version="1.0" standalone="no"?>
<!DOCTYPE svg PUBLIC "-//W3C//DTD SVG 20010904//EN"
 "http://www.w3.org/TR/2001/REC-SVG-20010904/DTD/svg10.dtd">
<svg version="1.0" xmlns="http://www.w3.org/2000/svg"
 width="300.000000pt" height="284.000000pt" viewBox="0 0 300.000000 284.000000"
 preserveAspectRatio="xMidYMid meet">
<metadata>
Created by potrace 1.10, written by Peter Selinger 2001-2011
</metadata>
<g transform="translate(0.000000,284.000000) scale(0.100000,-0.100000)"
fill="#fff" stroke="none">
<path d="M1587 2363 c-3 -38 -13 -140 -21 -228 -8 -88 -17 -200 -19 -248 -4
-88 -19 -130 -33 -91 -38 108 -260 581 -269 573 -5 -6 100 -403 140 -529 19
-57 33 -105 32 -106 -1 -2 -31 36 -65 83 -35 47 -66 83 -69 79 -3 -3 21 -53
55 -111 33 -58 58 -105 55 -105 -3 0 -40 31 -82 68 -67 60 -199 169 -255 212
-18 13 -19 13 -11 0 34 -59 185 -220 206 -220 10 0 26 -10 36 -22 10 -13 37
-36 61 -53 24 -16 53 -37 64 -45 20 -14 21 -14 8 10 -13 24 -13 24 20 -3 18
-15 34 -26 37 -24 7 8 -40 96 -49 91 -11 -7 -10 17 3 53 8 24 6 47 -10 109
-11 43 -18 80 -16 82 2 2 20 -29 39 -70 19 -41 44 -82 54 -92 17 -15 18 -21 9
-47 -10 -25 -16 -29 -35 -24 l-24 6 23 -38 c57 -94 71 -115 75 -111 2 3 -1 30
-7 62 -5 31 -9 73 -7 94 l4 37 21 -46 c11 -25 27 -72 34 -105 11 -55 13 -57
20 -29 4 17 10 47 13 68 11 59 25 43 19 -20 l-5 -58 26 30 c15 16 36 44 47 62
47 76 34 0 -16 -98 -22 -42 -8 -36 60 27 55 50 58 55 38 60 -13 4 -23 12 -23
18 0 14 110 131 130 138 18 7 165 246 156 255 -3 4 -7 4 -9 2 -2 -2 -60 -72
-129 -156 -70 -83 -134 -163 -144 -177 -24 -37 -29 -25 -11 26 32 94 58 190
53 195 -6 7 -126 -234 -126 -253 0 -8 -4 -14 -10 -14 -13 0 -13 21 1 75 6 24
9 50 6 57 -3 7 -8 -2 -12 -19 -4 -18 -12 -33 -17 -33 -6 0 -7 11 -4 25 10 41
-41 645 -55 645 -3 0 -9 -30 -12 -67z m27 -495 c4 -50 11 -99 16 -109 6 -10
10 -29 10 -43 0 -19 -5 -26 -20 -26 -11 0 -20 4 -20 9 0 5 -11 23 -26 40 -24
29 -24 31 -9 55 9 13 19 56 22 95 3 39 9 71 13 71 4 0 10 -41 14 -92z"/>
<path d="M2178 2020 c-177 -145 -265 -226 -256 -235 4 -4 24 2 44 14 20 12 38
20 40 19 1 -2 -22 -35 -52 -73 -38 -50 -54 -79 -54 -100 0 -17 -5 -36 -12 -43
-17 -17 -58 -15 -58 3 0 28 -31 9 -55 -35 -8 -13 -7 -13 8 -1 10 8 20 11 23 9
3 -3 -9 -16 -25 -28 -49 -34 -36 -41 25 -14 56 25 104 28 52 4 -16 -7 -28 -17
-28 -22 0 -10 -4 -11 54 7 49 15 69 13 50 -4 -5 -5 -43 -23 -84 -41 -41 -17
-79 -35 -84 -41 -6 -5 23 -9 80 -10 49 -1 103 -4 119 -8 26 -6 20 -8 -40 -19
-39 -7 -94 -14 -123 -14 -29 -1 -55 -4 -57 -8 -2 -3 21 -15 51 -25 30 -10 54
-24 54 -31 0 -8 14 -20 30 -29 34 -17 35 -16 18 20 -6 14 -9 28 -5 31 11 11
47 -18 60 -49 10 -23 32 -42 76 -67 34 -19 72 -43 84 -52 l22 -17 -26 -1 c-15
0 -33 -7 -40 -16 -11 -14 -10 -21 4 -46 20 -34 18 -34 -50 -7 -28 11 -34 11
-52 -5 -20 -18 -21 -18 -51 13 -18 17 -34 31 -37 31 -2 0 -23 15 -46 33 -62
50 -72 54 -56 26 11 -22 10 -22 -21 4 -18 15 -34 26 -36 24 -8 -8 38 -97 47
-92 12 8 11 -12 -2 -49 -9 -25 -7 -47 10 -111 11 -43 18 -81 16 -83 -2 -2 -17
22 -33 54 -34 67 -63 97 -88 92 -28 -5 -54 -50 -61 -106 -3 -28 -9 -52 -13
-52 -4 0 -10 34 -14 77 -4 42 -14 89 -22 104 -34 67 4 96 53 39 32 -39 57 -38
73 1 11 26 17 29 38 24 l25 -6 -18 28 c-11 15 -30 47 -43 71 -23 41 -52 60
-37 25 13 -32 19 -163 7 -163 -6 0 -14 10 -17 23 -4 12 -13 36 -20 52 -7 17
-16 50 -21 75 l-8 45 -17 -70 -17 -70 -1 65 c-2 62 -2 64 -16 40 -8 -14 -15
-20 -15 -15 0 6 -14 -11 -31 -38 -17 -26 -35 -47 -40 -47 -13 0 -12 4 21 77
17 36 28 69 25 71 -8 8 -115 -100 -109 -110 3 -5 9 -6 14 -3 5 3 14 -3 19 -14
14 -26 14 -31 -2 -31 -7 0 -35 -22 -62 -50 -27 -27 -53 -50 -59 -50 -5 0 -15
-8 -23 -17 -29 -37 -143 -236 -138 -241 2 -3 13 6 24 19 10 13 53 65 96 114
42 50 98 118 123 152 26 34 48 60 50 58 3 -3 -13 -50 -44 -129 -5 -13 -4 -17
4 -12 7 4 5 -10 -4 -39 -32 -93 -6 -62 55 66 71 148 69 144 76 137 3 -3 -1
-34 -10 -69 -8 -35 -15 -72 -15 -82 0 -33 17 -8 24 33 3 22 11 40 17 40 6 0 8
-8 4 -19 -9 -28 38 -602 52 -641 8 -21 40 285 49 463 4 81 11 147 16 147 4 0
8 -12 8 -27 0 -16 5 -35 10 -43 9 -13 10 -13 10 0 0 8 -4 32 -9 53 -12 48 9
46 22 -2 13 -53 255 -559 257 -538 0 17 -132 503 -155 566 -13 36 -22 67 -20
70 3 2 6 2 8 0 48 -69 120 -159 124 -156 5 5 -62 129 -101 190 -22 32 -7 36
20 6 32 -36 315 -271 321 -266 2 3 -39 55 -91 116 -53 61 -93 111 -89 111 4 0
34 -18 67 -39 34 -22 124 -75 202 -119 78 -44 154 -88 169 -98 16 -10 26 -13
24 -7 -5 14 -234 214 -315 275 -30 22 -52 43 -50 46 3 2 39 -10 80 -27 102
-43 366 -134 372 -129 2 3 -58 41 -133 85 -221 129 -293 170 -368 205 -82 38
-70 45 46 24 46 -8 88 -11 92 -7 8 8 -204 71 -237 71 -10 0 -14 5 -11 10 3 6
54 11 113 11 59 1 121 4 137 8 27 6 24 8 -25 14 -30 4 -72 7 -92 7 -20 0 -40
5 -43 10 -3 6 4 10 17 10 46 0 595 146 586 156 -6 5 -376 -23 -466 -37 -70
-10 -106 -7 -66 7 19 6 256 115 263 121 2 2 2 5 0 7 -6 6 -296 -69 -374 -98
-38 -14 -71 -24 -72 -22 -2 2 42 38 98 80 55 43 98 81 95 84 -3 3 -40 -16 -82
-41 -42 -26 -81 -47 -87 -47 -6 0 14 26 44 58 98 101 381 442 367 442 -2 0
-69 -54 -150 -120z m-128 -464 c0 -21 27 -39 68 -46 l37 -6 -70 -23 c-38 -12
-75 -27 -81 -32 -7 -6 -25 -3 -47 6 l-36 15 25 38 c13 20 39 42 57 49 42 16
47 16 47 -1z"/>
<path d="M770 1986 c47 -44 282 -243 322 -272 47 -33 62 -28 33 10 -25 33 -17
37 25 16 40 -21 70 -26 70 -12 0 11 -109 80 -288 180 -161 91 -190 105 -162
78z"/>
<path d="M670 1836 c0 -10 400 -239 503 -286 37 -18 67 -36 67 -42 0 -5 -8 -7
-19 -3 -35 11 -185 35 -189 30 -10 -9 5 -15 126 -47 67 -18 122 -36 122 -40 0
-5 -39 -8 -87 -9 -49 0 -110 -4 -138 -8 l-50 -6 93 -14 c51 -8 91 -15 90 -17
-2 -1 -56 -14 -121 -29 -108 -24 -279 -69 -423 -111 -31 -9 -53 -18 -51 -21 6
-6 391 25 476 38 35 5 66 8 68 5 3 -2 -17 -14 -44 -25 -136 -60 -233 -107
-233 -115 0 -4 8 -6 18 -3 9 2 58 15 107 27 206 52 385 118 385 141 0 7 -41 0
-87 -15 -12 -4 -24 -3 -27 2 -3 5 38 27 91 48 l97 39 -125 11 c-68 5 -117 13
-109 16 24 10 130 30 189 37 l54 6 -39 14 c-87 31 -89 32 -75 41 11 6 6 12
-17 24 -40 21 -45 20 -32 -3 5 -11 10 -27 10 -36 0 -26 -40 2 -52 36 -8 23
-30 42 -90 76 -89 52 -100 63 -64 63 73 0 -7 39 -266 129 -145 51 -158 54
-158 47z m569 -477 c35 -12 38 -21 16 -39 -8 -7 -15 -20 -15 -30 0 -11 -14
-21 -41 -29 -23 -7 -42 -11 -42 -9 -16 32 -31 45 -62 54 l-38 10 34 13 c19 7
48 19 64 26 38 17 45 18 84 4z"/>
<path d="M1290 1675 c0 -3 10 -24 21 -47 20 -40 20 -42 4 -55 -16 -11 -11 -16
45 -42 35 -17 66 -28 69 -25 4 3 -14 24 -38 45 -44 40 -47 48 -8 28 12 -7 2
11 -27 45 -43 49 -66 67 -66 51z"/>
<path d="M1803 1274 c33 -32 41 -43 25 -38 -20 6 -19 3 10 -33 44 -56 62 -70
62 -49 0 9 -7 30 -15 47 -11 21 -13 34 -6 48 9 16 3 22 -48 45 -32 14 -62 26
-67 26 -5 0 12 -21 39 -46z"/>
<path d="M1370 1275 c-57 -24 -266 -172 -257 -182 3 -3 42 15 86 41 44 25 84
46 88 46 4 0 -17 -26 -48 -57 -70 -73 -282 -325 -363 -432 -19 -26 12 -2 154
113 163 134 257 222 248 231 -4 4 -29 -5 -55 -21 -26 -15 -43 -21 -37 -13 6 8
34 43 63 78 37 47 51 74 51 96 0 55 54 79 66 29 l6 -25 29 33 c36 42 36 53 2
32 -26 -15 -26 -14 5 15 51 49 45 51 -38 16z"/>
</g>
</svg>
